<svg width="719" height="582" viewBox="0 0 719 582" fill="none" xmlns="http://www.w3.org/2000/svg">
<circle cx="351.796" cy="222.119" r="178.75" stroke="#7280FF" stroke-width="2" stroke-dasharray="15 15"/>
<circle cx="224.688" cy="401.869" r="178.75" stroke="#7280FF" stroke-width="2" stroke-dasharray="15 15"/>
<circle cx="494.312" cy="401.869" r="178.75" stroke="#7280FF" stroke-width="2" stroke-dasharray="15 15"/>
<circle cx="530.263" cy="225.971" r="44.9375" fill="white"/>
<g clip-path="url(#clip0_2303_26)">
<path d="M523.041 227.551C519.93 227.551 517.399 230.082 517.399 233.193V247.292C517.399 250.403 519.93 252.934 523.041 252.934C526.152 252.934 528.683 250.403 528.683 247.292V233.193C528.683 230.082 526.152 227.551 523.041 227.551V227.551Z" fill="#FF4340"/>
<path d="M514.241 227.551H508.779C505.768 227.551 503.317 230.002 503.317 233.013C503.317 236.025 505.768 238.475 508.779 238.475C511.791 238.475 514.241 236.025 514.241 233.013V227.551Z" fill="#FF4340"/>
<path d="M503.3 218.75C503.3 221.861 505.831 224.392 508.942 224.392H523.041C526.152 224.392 528.683 221.861 528.683 218.75C528.683 215.639 526.152 213.108 523.041 213.108H508.942C505.831 213.108 503.3 215.639 503.3 218.75V218.75Z" fill="#36C6FF"/>
<path d="M523.223 209.948H528.685V204.486C528.685 201.474 526.234 199.024 523.223 199.024C520.211 199.024 517.761 201.474 517.761 204.486C517.761 207.498 520.211 209.948 523.223 209.948Z" fill="#36C6FF"/>
<path d="M537.484 224.391C540.595 224.391 543.126 221.86 543.126 218.749V204.651C543.126 201.54 540.595 199.009 537.484 199.009C534.373 199.009 531.842 201.54 531.842 204.651V218.749C531.842 221.86 534.373 224.391 537.484 224.391Z" fill="#0DC46E"/>
<path d="M546.286 224.392H551.748C554.759 224.392 557.21 221.942 557.21 218.93C557.21 215.918 554.759 213.468 551.748 213.468C548.736 213.468 546.286 215.918 546.286 218.93V224.392Z" fill="#0DC46E"/>
<path d="M557.225 233.193C557.225 230.082 554.694 227.551 551.583 227.551H537.484C534.373 227.551 531.842 230.082 531.842 233.193C531.842 236.304 534.373 238.835 537.484 238.835H551.583C554.694 238.835 557.225 236.304 557.225 233.193Z" fill="#FDCB02"/>
<path d="M537.304 241.995H531.842V247.457C531.842 250.468 534.293 252.919 537.304 252.919C540.316 252.919 542.766 250.468 542.766 247.457C542.766 244.445 540.316 241.995 537.304 241.995Z" fill="#FDCB02"/>
</g>
<circle cx="44.9375" cy="387.746" r="44.9375" fill="white"/>
<path d="M45.2837 405C42.6265 404.936 40.4343 403.789 39.0345 401.395C37.5997 398.92 37.6622 396.387 39.192 393.973C42.834 388.228 46.5235 382.515 50.1906 376.788C50.9405 375.616 51.6729 374.428 52.4578 373.278C53.4997 371.706 55.1278 370.594 56.9954 370.179C58.8629 369.764 60.8223 370.078 62.4564 371.055C65.9085 373.136 67.0633 377.465 64.9136 380.877C60.5192 387.879 56.0623 394.848 51.5429 401.782C50.1506 403.926 48.0383 404.961 45.2837 405Z" fill="#FFCB00"/>
<path d="M22.2493 405C19.563 404.936 17.3799 403.737 16.0055 401.351C14.5885 398.875 14.6787 396.334 16.2158 393.919C20.1396 387.765 24.081 381.62 28.0399 375.484C28.5406 374.691 29.0413 373.878 29.577 373.11C30.6634 371.571 32.3199 370.505 34.1958 370.139C36.0716 369.773 38.0196 370.135 39.6272 371.149C41.2348 372.162 42.3759 373.747 42.8089 375.568C43.2419 377.39 42.9327 379.304 41.9469 380.907C37.5607 387.83 33.1145 394.729 28.6658 401.62C27.2212 403.855 25.0958 404.961 22.2493 405Z" fill="#FF3D57"/>
<path d="M68.0546 391C71.8968 391.02 75.0071 394.154 75 397.999C75 401.901 71.8065 405.048 67.9287 404.999C64.0509 404.951 60.9953 401.85 61 397.989C61.0048 394.071 64.127 390.976 68.0546 391Z" fill="#00D647"/>
<circle cx="674.062" cy="387.746" r="44.9375" fill="white"/>
<g clip-path="url(#clip1_2303_26)">
<path d="M674.015 377.818L662.823 397.23H662.791L669.273 405.134L654.73 411.236C654.445 411.078 654.224 410.857 654.097 410.635L647.268 397.989C646.92 397.293 647.205 396.756 647.3 396.44L665.605 364.824C665.732 364.635 665.921 364.445 666.174 364.287H666.206L675.596 367.196L674.015 377.818Z" fill="#59C36A"/>
<path d="M701.024 397.23L688.346 405.134L685.343 397.23L674.014 377.818L666.205 364.287C666.426 364.129 666.711 364.034 666.964 364.034H681.17C681.486 364.129 682.118 364.097 682.529 364.824L700.835 396.44C700.961 396.661 701.024 396.946 701.024 397.23V397.23Z" fill="#FFDA2D"/>
<path d="M682.531 364.826C682.12 364.098 681.487 364.13 681.171 364.035H674.016V377.82L685.344 397.231L688.348 405.135L701.026 397.231C701.026 396.947 700.962 396.662 700.836 396.441L682.531 364.826Z" fill="#FDBF00"/>
<path d="M701.025 397.231C701.025 397.515 700.962 397.8 700.867 397.989L694.038 410.636C693.785 411.047 693.184 411.458 692.647 411.458H655.488C655.235 411.458 654.951 411.363 654.729 411.236L662.791 397.231H701.025Z" fill="#4086F4"/>
<path d="M674.016 411.457H692.648C693.185 411.457 693.786 411.046 694.039 410.635L700.868 397.989C700.963 397.8 701.026 397.515 701.026 397.23H674.016V411.457H674.016Z" fill="#4175DF"/>
</g>
<circle cx="172.046" cy="225.971" r="44.9375" fill="white"/>
<g clip-path="url(#clip2_2303_26)">
<path d="M155.676 239.356V235.022L162.994 239.259L172.046 230.785V250.044L155.676 239.356Z" fill="#0093EB"/>
<path d="M146.915 227.897L156.448 219.231L172.048 228.86L162.996 237.334L146.915 227.897Z" fill="#0093EB"/>
<path d="M156.446 219.23L145.083 210.564L161.454 201.897L173.009 209.601L156.446 219.23Z" fill="#0093EB"/>
<path d="M188.415 239.452L172.045 250.044V230.786L181.386 238.874L188.415 234.445V239.452Z" fill="#0093EB"/>
<path d="M181.386 236.948L172.045 228.86L187.741 218.845L197.178 226.934L181.386 236.948Z" fill="#0093EB"/>
<path d="M187.741 218.845L173.008 209.601L184.563 201.897L199.007 210.564L187.741 218.845Z" fill="#0093EB"/>
</g>
<circle cx="359.5" cy="514.855" r="44.9375" fill="white"/>
<g clip-path="url(#clip3_2303_26)">
<path d="M380.02 489H338.98C336.23 489 334 491.23 334 493.98V535.02C334 537.77 336.23 540 338.98 540H380.02C382.77 540 385 537.77 385 535.02V493.98C385 491.23 382.77 489 380.02 489Z" fill="url(#paint0_linear_2303_26)"/>
<path d="M375.979 495.63H365.206C363.885 495.63 362.815 496.7 362.815 498.021V515.552C362.815 516.872 363.885 517.943 365.206 517.943H375.979C377.3 517.943 378.37 516.872 378.37 515.552V498.021C378.37 496.7 377.3 495.63 375.979 495.63Z" fill="white"/>
<path d="M353.794 495.63H343.021C341.7 495.63 340.63 496.7 340.63 498.021V528.302C340.63 529.622 341.7 530.693 343.021 530.693H353.794C355.115 530.693 356.185 529.622 356.185 528.302V498.021C356.185 496.7 355.115 495.63 353.794 495.63Z" fill="white"/>
</g>
<circle cx="355.648" cy="44.9375" r="44.9375" fill="white"/>
<g clip-path="url(#clip4_2303_26)">
<path d="M375.871 24.7153H335.428V65.1591H375.871V24.7153Z" fill="#ECEFF1"/>
<path d="M355.647 49.1907L375.869 65.1593V33.6334L355.647 49.1907Z" fill="#CFD8DC"/>
<path d="M377.556 24.7156H375.87L355.649 40.6841L335.427 24.7156H333.742C330.951 24.7156 328.686 26.9804 328.686 29.771V60.1039C328.686 62.8945 330.951 65.1593 333.742 65.1593H335.427V33.6334L355.649 49.1874L375.87 33.6301V65.1593H377.556C380.346 65.1593 382.611 62.8945 382.611 60.1039V29.771C382.611 26.9804 380.346 24.7156 377.556 24.7156Z" fill="#F44336"/>
</g>
<g clip-path="url(#clip5_2303_26)">
<path d="M360 428.079C400.869 428.079 434 394.949 434 354.079C434 313.21 400.869 280.079 360 280.079C319.131 280.079 286 313.21 286 354.079C286 394.949 319.131 428.079 360 428.079Z" fill="#4141FF"/>
<path d="M315.156 348.159C315.403 347.37 315.797 346.729 316.192 346.285C316.735 345.841 317.228 345.594 317.968 345.594C318.856 345.594 319.448 345.841 319.991 346.383C320.533 346.926 320.78 347.617 320.78 348.505C320.78 348.751 320.681 349.047 320.681 349.294C320.583 349.541 320.484 349.985 320.336 350.527L315.748 363.798C315.304 364.834 314.86 365.673 314.317 366.117C313.775 366.561 313.084 366.807 312.295 366.807C311.407 366.807 310.617 366.561 309.976 366.018C309.335 365.475 308.94 364.686 308.644 363.699L306.128 354.079L303.809 363.798C303.563 364.785 303.168 365.475 302.576 366.018C301.935 366.561 301.244 366.807 300.356 366.807C299.369 366.807 298.679 366.561 298.136 366.117C297.593 365.673 297.1 364.785 296.705 363.65L291.92 350.231C291.723 349.886 291.723 349.59 291.673 349.343C291.575 349.097 291.575 348.801 291.575 348.554C291.575 347.666 291.821 346.975 292.364 346.433C292.907 345.791 293.597 345.545 294.387 345.545C295.176 345.545 295.817 345.791 296.311 346.235C296.853 346.778 297.199 347.469 297.544 348.455L300.701 359.506L303.267 348.455C303.464 347.567 303.809 346.877 304.303 346.433C304.845 345.989 305.339 345.742 306.079 345.742C306.868 345.742 307.509 345.989 308.003 346.433C308.545 346.975 308.891 347.567 309.137 348.554L311.9 359.407L315.156 348.159Z" fill="white"/>
<path d="M327.884 362.121C327.884 363.601 327.637 364.686 327.193 365.377C326.651 366.067 325.96 366.413 324.973 366.413C323.937 366.413 323.197 366.067 322.655 365.377C322.112 364.686 321.865 363.502 321.865 362.121V349.935C321.865 348.455 322.112 347.37 322.556 346.679C323.099 345.989 323.789 345.643 324.875 345.643C325.911 345.643 326.651 345.989 327.095 346.679C327.637 347.37 327.785 348.554 327.785 349.935L327.884 362.121Z" fill="white"/>
<path d="M335.827 352.55L340.958 347.173C341.5 346.531 341.994 346.186 342.536 345.939C343.079 345.693 343.523 345.495 344.016 345.495C344.707 345.495 345.348 345.742 345.792 346.186C346.335 346.63 346.483 347.222 346.483 347.863C346.483 348.406 346.286 348.85 346.039 349.343C345.792 349.886 345.348 350.33 344.904 350.774L340.859 354.474L346.532 361.085C346.976 361.627 347.223 362.071 347.42 362.515C347.618 362.959 347.667 363.502 347.667 363.995C347.667 364.686 347.42 365.327 346.878 365.771C346.335 366.314 345.644 366.462 344.855 366.462C344.214 366.462 343.72 366.265 343.178 366.018C342.635 365.673 342.142 365.229 341.698 364.587L335.679 356.546V362.022C335.679 363.502 335.432 364.686 334.89 365.377C334.347 366.166 333.656 366.511 332.571 366.511C331.486 366.511 330.795 366.166 330.252 365.377C329.71 364.587 329.463 363.502 329.463 362.022V341.351C329.463 339.871 329.71 338.786 330.154 337.997C330.696 337.306 331.387 336.961 332.472 336.961C333.508 336.961 334.248 337.306 334.791 338.095C335.334 338.885 335.58 339.97 335.58 341.351L335.827 352.55Z" fill="white"/>
<path d="M356.646 362.121V349.936C356.646 348.456 356.892 347.272 357.435 346.581C357.978 345.792 358.668 345.446 359.754 345.446C360.395 345.446 360.888 345.644 361.332 345.989C361.875 346.334 362.22 346.877 362.664 347.469C363.306 346.778 363.996 346.236 364.786 345.989C365.575 345.644 366.463 345.446 367.548 345.446C368.88 345.446 370.015 345.693 371.002 346.137C371.988 346.68 372.876 347.37 373.567 348.258C374.455 347.222 375.442 346.482 376.33 346.038C377.316 345.594 378.352 345.348 379.586 345.348C381.707 345.348 383.384 346.038 384.618 347.469C385.851 348.9 386.394 350.824 386.394 353.29V361.924C386.394 363.404 386.147 364.489 385.604 365.18C385.062 365.87 384.371 366.413 383.286 366.413C382.2 366.413 381.51 366.068 380.967 365.377C380.424 364.686 380.276 363.502 380.276 362.121V355.313C380.276 353.734 380.03 352.55 379.586 351.86C379.142 351.169 378.451 350.725 377.464 350.725C376.428 350.725 375.59 351.07 375.146 351.761C374.603 352.452 374.455 353.636 374.455 355.214V362.121C374.455 363.601 374.208 364.686 373.666 365.377C373.123 366.068 372.432 366.413 371.347 366.413C370.311 366.413 369.571 366.068 369.028 365.377C368.486 364.686 368.239 363.502 368.239 362.121V355.313C368.239 353.734 367.992 352.55 367.548 351.86C367.104 351.169 366.414 350.824 365.526 350.824C364.49 350.824 363.651 351.169 363.207 351.86C362.664 352.55 362.516 353.734 362.516 355.313V362.22C362.516 363.7 362.27 364.785 361.727 365.476C361.184 366.166 360.494 366.512 359.408 366.512C358.372 366.512 357.632 366.166 357.09 365.476C356.942 364.736 356.646 363.601 356.646 362.121Z" fill="white"/>
<path d="M393.596 357.681C393.793 358.816 394.237 359.703 395.027 360.345C395.816 360.986 396.901 361.331 398.184 361.331C399.319 361.331 400.552 360.986 401.983 360.345C403.413 359.654 404.203 359.358 404.548 359.358C405.239 359.358 405.88 359.605 406.324 360.049C406.768 360.493 407.015 361.036 407.015 361.726C407.015 363.058 406.127 364.193 404.252 365.278C402.476 366.314 400.355 366.857 397.888 366.857C394.879 366.857 392.412 365.821 390.488 363.848C388.564 361.825 387.479 359.259 387.479 356.25C387.479 353.142 388.465 350.577 390.389 348.554C392.313 346.532 394.731 345.446 397.641 345.446C400.404 345.446 402.772 346.433 404.597 348.357C406.472 350.281 407.409 352.698 407.409 355.411C407.409 356.299 407.212 356.99 406.768 357.336C406.324 357.681 405.535 357.878 404.4 357.878L393.596 357.681ZM393.596 353.783H401.539C401.44 352.747 400.996 351.909 400.305 351.218C399.516 350.527 398.628 350.182 397.641 350.182C396.605 350.182 395.717 350.528 394.977 351.169C394.287 351.761 393.793 352.649 393.596 353.783Z" fill="white"/>
<path d="M355.067 362.121C355.067 363.601 354.82 364.686 354.376 365.377C353.833 366.067 353.143 366.413 352.156 366.413C351.12 366.413 350.38 366.067 349.837 365.377C349.295 364.686 349.048 363.502 349.048 362.121V349.935C349.048 348.455 349.295 347.37 349.739 346.679C350.281 345.989 350.972 345.643 352.057 345.643C353.093 345.643 353.833 345.989 354.277 346.679C354.82 347.37 354.968 348.554 354.968 349.935L355.067 362.121Z" fill="white"/>
<path d="M324.973 336.862C322.951 336.862 321.273 338.54 321.273 340.562C321.273 342.585 322.852 344.262 324.973 344.262C326.996 344.262 328.575 342.684 328.575 340.562C328.575 338.54 326.996 336.862 324.973 336.862Z" fill="white"/>
<path d="M352.057 336.911C350.035 336.911 348.357 338.589 348.357 340.513C348.357 342.536 349.936 344.114 352.057 344.114C354.08 344.114 355.659 342.536 355.659 340.513C355.708 338.589 354.129 336.911 352.057 336.911Z" fill="white"/>
<path d="M411.257 357.681C410.123 357.681 409.333 357.483 408.889 357.138C408.445 356.793 408.248 356.151 408.248 355.214C408.248 352.402 409.235 349.985 411.06 348.159C412.935 346.235 415.204 345.249 418.016 345.249C420.927 345.249 423.295 346.285 425.268 348.357C427.192 350.379 428.179 353.043 428.179 356.053C428.179 359.062 427.192 361.726 425.169 363.65C423.245 365.673 420.68 366.659 417.769 366.659C415.303 366.659 413.181 366.117 411.405 365.081C409.629 364.045 408.643 362.861 408.643 361.529C408.643 360.838 408.889 360.295 409.333 359.851C409.777 359.407 410.369 359.161 411.109 359.161C411.455 359.161 412.244 359.506 413.675 360.147C415.105 360.838 416.339 361.134 417.473 361.134C418.805 361.134 419.841 360.789 420.631 360.147C421.42 359.506 421.864 358.667 422.061 357.483L411.257 357.681ZM420.729 351.169C420.039 350.478 419.151 350.182 418.065 350.182C416.98 350.182 416.141 350.527 415.401 351.218C414.612 351.909 414.267 352.797 414.168 353.783H422.111C421.864 352.649 421.42 351.859 420.729 351.169Z" fill="white"/>
</g>
<defs>
<linearGradient id="paint0_linear_2303_26" x1="2884" y1="489" x2="2884" y2="5589" gradientUnits="userSpaceOnUse">
<stop stop-color="#0091E6"/>
<stop offset="1" stop-color="#0079BF"/>
</linearGradient>
<clipPath id="clip0_2303_26">
<rect width="53.925" height="53.925" fill="white" transform="translate(503.3 199.009)"/>
</clipPath>
<clipPath id="clip1_2303_26">
<rect width="53.925" height="53.925" fill="white" transform="translate(647.1 360.783)"/>
</clipPath>
<clipPath id="clip2_2303_26">
<rect width="53.925" height="53.925" fill="white" transform="translate(145.083 199.009)"/>
</clipPath>
<clipPath id="clip3_2303_26">
<rect width="51" height="51" fill="white" transform="translate(334 489)"/>
</clipPath>
<clipPath id="clip4_2303_26">
<rect width="53.925" height="53.925" fill="white" transform="translate(328.686 17.975)"/>
</clipPath>
<clipPath id="clip5_2303_26">
<rect width="148" height="148" fill="white" transform="translate(286 280.079)"/>
</clipPath>
</defs>
</svg>
